<svg width="432" height="137" viewBox="0 0 432 137" fill="none" xmlns="http://www.w3.org/2000/svg">
<path d="M54.2719 115.928L61.4789 70.3125C61.8304 67.2656 61.6254 64.5117 60.8636 62.0508C60.1019 59.5898 58.6957 57.6562 56.6449 56.25C54.6527 54.7852 52.016 54.0234 48.7347 53.9648C45.8051 53.9062 43.0511 54.4043 40.473 55.459C37.8949 56.4551 35.6976 57.9492 33.8812 59.9414C32.1234 61.9336 30.9515 64.3652 30.3656 67.2363L9.7113 67.3242C10.0629 62.3438 11.5277 58.0078 14.1058 54.3164C16.7426 50.5664 20.0531 47.4902 24.0375 45.0879C28.0804 42.627 32.4164 40.8398 37.0453 39.7266C41.7328 38.5547 46.3031 37.998 50.7562 38.0566C57.2015 38.1738 62.9144 39.5508 67.8949 42.1875C72.8754 44.8242 76.6547 48.5449 79.2328 53.3496C81.8695 58.1543 82.8656 63.9551 82.2211 70.752L75.2777 113.115C74.7504 116.455 74.3695 119.883 74.1351 123.398C73.9594 126.855 74.4281 130.195 75.5414 133.418L75.3656 135L54.8871 135.088C54.0082 131.982 53.5687 128.818 53.5687 125.596C53.5687 122.314 53.8031 119.092 54.2719 115.928ZM63.8519 77.168L61.7426 90.2637L48.0316 90.1758C45.2191 90.1758 42.3187 90.4395 39.3304 90.9668C36.4008 91.4941 33.6469 92.4023 31.0687 93.6914C28.4906 94.9805 26.3226 96.7383 24.5648 98.9648C22.807 101.133 21.723 103.857 21.3129 107.139C21.0199 109.775 21.3129 112.061 22.1918 113.994C23.1293 115.869 24.5355 117.363 26.4105 118.477C28.2855 119.59 30.5121 120.176 33.0902 120.234C36.5472 120.293 39.9457 119.619 43.2855 118.213C46.684 116.807 49.6136 114.814 52.0746 112.236C54.5941 109.6 56.3226 106.582 57.2601 103.184L62.7972 112.676C61.5082 116.25 59.6918 119.531 57.348 122.52C55.0629 125.508 52.3969 128.086 49.35 130.254C46.3031 132.422 42.9633 134.092 39.3304 135.264C35.7562 136.436 32.0648 136.992 28.2562 136.934C22.9828 136.816 18.1781 135.615 13.8422 133.33C9.50623 130.986 6.07849 127.734 3.55896 123.574C1.03943 119.414 -0.0738525 114.609 0.219116 109.16C0.512085 103.008 2.06482 97.8809 4.87732 93.7793C7.74841 89.6191 11.4105 86.3379 15.8636 83.9355C20.3754 81.4746 25.2972 79.7168 30.6293 78.6621C35.9613 77.6074 41.2347 77.0801 46.4496 77.0801L63.8519 77.168Z" fill="black"/>
<path d="M141.997 114.082L161.773 0H182.603L159.136 135H140.503L141.997 114.082ZM86.4504 89.209L86.6261 87.3633C87.3879 81.5039 88.7648 75.6445 90.757 69.7852C92.8078 63.9258 95.5617 58.5645 99.0187 53.7012C102.534 48.8379 106.812 44.9707 111.851 42.0996C116.948 39.2285 122.925 37.8809 129.78 38.0566C135.757 38.2324 140.737 39.7852 144.722 42.7148C148.706 45.6445 151.812 49.4238 154.038 54.0527C156.323 58.6816 157.876 63.6914 158.696 69.082C159.517 74.4141 159.78 79.6289 159.487 84.7266L158.784 90.7031C157.847 96.0938 156.265 101.543 154.038 107.051C151.812 112.559 148.911 117.598 145.337 122.168C141.821 126.738 137.603 130.371 132.681 133.066C127.818 135.762 122.251 137.021 115.982 136.846C109.712 136.611 104.527 135.029 100.425 132.1C96.3234 129.111 93.1593 125.273 90.9328 120.586C88.7062 115.84 87.2707 110.742 86.6261 105.293C85.9816 99.7852 85.923 94.4238 86.4504 89.209ZM107.544 87.1875L107.368 89.0332C107.017 92.0801 106.87 95.332 106.929 98.7891C106.987 102.246 107.456 105.557 108.335 108.721C109.273 111.826 110.825 114.404 112.993 116.455C115.22 118.506 118.325 119.619 122.31 119.795C126.939 119.971 131.04 118.916 134.614 116.631C138.247 114.346 141.265 111.357 143.667 107.666C146.07 103.975 147.769 100.049 148.765 95.8887L151.226 79.8047C151.402 76.875 151.196 73.9746 150.611 71.1035C150.083 68.2324 149.116 65.625 147.71 63.2812C146.304 60.9375 144.429 59.0332 142.085 57.5684C139.8 56.0449 137.017 55.2539 133.736 55.1953C129.4 55.0195 125.65 55.8984 122.486 57.832C119.38 59.7656 116.802 62.3438 114.751 65.5664C112.759 68.7891 111.177 72.3047 110.005 76.1133C108.833 79.9219 108.013 83.6133 107.544 87.1875Z" fill="black"/>
<path d="M203.355 60.4688L190.436 135H169.693L186.217 39.9023H205.728L203.355 60.4688ZM196.236 83.9355H189.381C190.084 78.1348 191.432 72.4805 193.424 66.9727C195.475 61.4062 198.228 56.4258 201.686 52.0312C205.143 47.6367 209.361 44.1797 214.342 41.6602C219.322 39.1406 225.094 37.9688 231.656 38.1445C236.52 38.2617 240.592 39.2285 243.873 41.0449C247.213 42.8613 249.879 45.3223 251.871 48.4277C253.863 51.5332 255.182 55.0781 255.826 59.0625C256.471 62.9883 256.588 67.1777 256.178 71.6309L245.631 135H224.889L235.26 73.3887C235.67 69.9902 235.553 66.9434 234.908 64.248C234.264 61.4941 232.916 59.2969 230.865 57.6562C228.873 56.0156 226.002 55.1367 222.252 55.0195C218.092 54.9023 214.488 55.6641 211.441 57.3047C208.395 58.9453 205.846 61.1719 203.795 63.9844C201.803 66.7969 200.162 69.9609 198.873 73.4766C197.643 76.9336 196.764 80.4199 196.236 83.9355ZM254.42 78.3105L244.4 80.5078C245.045 75 246.393 69.6973 248.443 64.5996C250.553 59.4434 253.336 54.873 256.793 50.8887C260.309 46.8457 264.469 43.6816 269.273 41.3965C274.078 39.0527 279.527 37.9395 285.621 38.0566C290.777 38.1738 295.113 39.1992 298.629 41.1328C302.145 43.0078 304.898 45.5859 306.891 48.8672C308.941 52.1484 310.289 55.8984 310.934 60.1172C311.578 64.2773 311.637 68.7305 311.109 73.4766L300.826 135H280.084L290.455 73.3008C290.865 69.8438 290.748 66.7676 290.103 64.0723C289.518 61.3184 288.228 59.1504 286.236 57.5684C284.244 55.9863 281.344 55.166 277.535 55.1074C274.137 54.9902 271.09 55.5762 268.395 56.8652C265.758 58.0957 263.473 59.8242 261.539 62.0508C259.664 64.2188 258.141 66.709 256.969 69.5215C255.797 72.334 254.947 75.2637 254.42 78.3105Z" fill="black"/>
<path d="M349.792 39.9023L333.268 135H312.614L329.137 39.9023H349.792ZM332.038 15.293C331.979 11.8945 333.093 9.11133 335.378 6.94336C337.663 4.77539 340.475 3.66211 343.815 3.60352C347.038 3.54492 349.792 4.54102 352.077 6.5918C354.421 8.58398 355.593 11.25 355.593 14.5898C355.651 17.9883 354.509 20.7422 352.165 22.8516C349.88 24.9609 347.096 26.0449 343.815 26.1035C340.593 26.1621 337.839 25.2246 335.553 23.291C333.268 21.2988 332.096 18.6328 332.038 15.293Z" fill="black"/>
<path d="M378.103 61.4355L365.359 135H344.617L361.14 39.9023H380.564L378.103 61.4355ZM370.808 83.9355L364.48 84.0234C365.183 78.3398 366.56 72.7441 368.611 67.2363C370.72 61.6699 373.503 56.6895 376.961 52.2949C380.418 47.8418 384.607 44.3262 389.529 41.748C394.509 39.1699 400.252 37.9688 406.755 38.1445C411.912 38.2617 416.189 39.2871 419.587 41.2207C423.044 43.1543 425.711 45.7617 427.586 49.043C429.519 52.3242 430.779 56.0742 431.365 60.293C431.951 64.5117 431.98 68.9355 431.453 73.5645L421.257 135H400.427L410.798 73.3008C411.15 69.9023 411.033 66.8555 410.447 64.1602C409.861 61.4062 408.572 59.2383 406.58 57.6562C404.587 56.0156 401.716 55.166 397.966 55.1074C393.865 54.9902 390.261 55.752 387.156 57.3926C384.05 59.0332 381.384 61.2891 379.158 64.1602C376.931 66.9727 375.115 70.1074 373.709 73.5645C372.361 77.0215 371.394 80.4785 370.808 83.9355Z" fill="black"/>
</svg>
